<svg
        width="100%"
        height="100%"
        viewBox="0 0 280 68"
        fill="none"
        xmlns="http://www.w3.org/2000/svg"
>
    <path
            d="M19.7521 52.3373H0.0682677L0 1.36407H21.8798C24.0757 1.36407 28.3197 1.71679 30.3791 2.21742C36.967 3.84447 40.8582 7.17821 43.8961 12.0593C46.5131 16.1668 47.7191 21.2641 47.7191 26.8507C47.7191 31.527 46.7975 35.7027 45.1705 39.3095C42.4853 45.1123 38.6623 48.7305 31.9265 50.7785C28.4563 51.848 23.9278 52.3373 19.7521 52.3373ZM20.0366 12.9127H11.8217V40.8797H21.3109C23.6434 40.8797 26.5448 40.3791 27.6143 40.0264C30.5839 39.1047 32.2906 37.6142 33.4853 35.35C34.9076 32.8696 35.3285 29.9 35.3285 26.8507C35.3285 24.4386 35.0441 22.1743 34.2704 20.2629C32.9961 17.1453 31.6535 15.2338 27.8305 13.7547C26.4765 13.2654 23.6434 12.9127 20.0366 12.9127Z"
            fill="#fff"
    />
    <path
            d="M58.676 19.8533C62.2601 16.3489 67.346 14.1415 73.3308 14.1415C79.3156 14.1415 84.4129 16.3489 87.9856 19.8533C91.49 23.2211 93.6973 28.0454 93.6291 33.8937C93.6973 39.7419 91.49 44.5662 87.9856 47.9341C84.4016 51.4385 79.3156 53.6458 73.3308 53.6458C67.346 53.6458 62.2487 51.4385 58.676 47.9341C55.1716 44.5662 52.9643 39.7419 53.0326 33.8937C52.9643 28.0454 55.1602 23.2325 58.676 19.8533ZM66.5951 26.7369C65.1501 28.3185 64.0464 30.7989 64.0464 33.8937C64.0464 36.9885 65.1501 39.4689 66.5951 41.0504C68.7341 43.326 71.0666 44.0087 73.3422 44.0087C75.6178 44.0087 77.9503 43.326 80.0893 41.0504C81.5343 39.4689 82.638 36.9885 82.638 33.8937C82.638 30.7989 81.5343 28.3185 80.0893 26.7369C77.9503 24.4613 75.6178 23.7787 73.3422 23.7787C71.0666 23.7787 68.7227 24.4727 66.5951 26.7369Z"
            fill="#fff"
    />
    <path
            d="M104.654 19.8533C108.238 16.3489 113.324 14.1415 119.309 14.1415C125.294 14.1415 130.391 16.3489 133.964 19.8533C137.468 23.2211 139.676 28.0454 139.607 33.8937C139.676 39.7419 137.468 44.5662 133.964 47.9341C130.38 51.4385 125.294 53.6458 119.309 53.6458C113.324 53.6458 108.227 51.4385 104.654 47.9341C101.15 44.5662 98.9425 39.7419 99.0108 33.8937C98.9425 28.0454 101.15 23.2325 104.654 19.8533ZM112.573 26.7369C111.128 28.3185 110.025 30.7989 110.025 33.8937C110.025 36.9885 111.128 39.4689 112.573 41.0504C114.712 43.326 117.045 44.0087 119.32 44.0087C121.596 44.0087 123.929 43.326 126.068 41.0504C127.513 39.4689 128.616 36.9885 128.616 33.8937C128.616 30.7989 127.513 28.3185 126.068 26.7369C123.929 24.4613 121.596 23.7787 119.32 23.7787C117.045 23.7787 114.701 24.4727 112.573 26.7369Z"
            fill="#fff"
    />
    <path
            d="M147.083 15.5183H157.96V19.785C159.2 18.34 160.577 17.0998 161.885 16.3489C163.467 15.45 165.117 14.6991 167.461 14.426C170.078 14.0847 173.104 14.1529 174.344 14.3577L173.377 23.8583C169.725 23.3122 165.879 23.6535 163.33 24.4727C161.681 25.0189 160.031 26.3273 158.927 28.0568C158.313 28.9557 158.097 30.4007 158.097 31.1516L158.028 32.6649L158.097 52.3487H147.083V15.5183Z"
            fill="#fff"
    />
    <path
            d="M188.066 51.0289C184.971 49.5156 182.149 46.9669 180.147 43.8039C177.53 39.3323 177.598 35.4069 177.598 33.6889C177.598 30.321 178.361 22.8798 184.823 18.34C189.636 14.8356 193.971 14.5511 196.247 14.5511C198.591 14.5511 201.06 15.2338 203.062 15.9961C204.029 16.3375 204.849 16.8267 205.611 17.3729V15.45H216.42V52.3373H205.406V49.6521C204.723 50.1983 203.961 50.6875 203.13 51.0971C201.208 52.0643 198.727 52.6787 196.804 52.7469C193.914 52.8266 190.819 52.2691 188.066 51.0289ZM206.032 33.7571C206.032 30.9354 205.554 29.4904 204.792 28.1819C203.62 26.1908 201.355 24.2565 197.976 24.2565C195.291 24.2565 193.368 24.8709 191.57 26.4639C189.784 27.9771 188.612 30.7989 188.612 33.6889C188.612 37.4095 189.989 40.015 191.912 41.5396C193.357 42.6433 195.496 43.2577 197.282 43.2577C200.582 43.2577 203.824 41.7445 205.133 38.7179C205.543 37.7508 206.032 36.5789 206.032 33.7571Z"
            fill="#fff"
    />
    <path
            d="M222.951 64.0452L226.945 55.2387L229.22 56.2741C230.665 56.8202 231.701 56.8202 232.588 56.8202C234.306 56.8202 235.546 55.7848 236.445 54.6129C236.855 54.0667 237.207 53.2362 237.481 52.3373L221.859 15.5182H233.908L242.714 38.3652L250.633 15.5182H262.683L251.737 43.7356C250.77 46.216 249.678 49.5156 248.438 52.8152C246.924 56.4675 245.138 60.1084 242.658 62.5206C241.349 63.7608 239.904 64.6596 238.391 65.274C235.979 66.2412 233.646 66.446 231.712 66.446C230.995 66.446 225.488 65.8998 222.951 64.0452Z"
            fill="#fff"
    />
    <path
            d="M268.372 42.5068H280V52.3373H268.372V42.5068ZM268.44 1H279.932L279.386 35.2931H268.577L268.44 1Z"
            fill="#fff"
    />
</svg>
